<?xml version="1.0" encoding="UTF-8" standalone="no"?>
<!-- Created with Inkscape (http://www.inkscape.org/) -->

<svg
   version="1.1"
   id="svg48"
   width="1706.6667"
   height="746.66669"
   viewBox="0 0 1706.6667 746.66669"
   sodipodi:docname="header-logo.svg"
   inkscape:version="1.2.2 (b0a8486541, 2022-12-01)"
   inkscape:export-filename="photo_2025-06-06_16-31-58.png"
   inkscape:export-xdpi="96"
   inkscape:export-ydpi="96"
   xmlns:inkscape="http://www.inkscape.org/namespaces/inkscape"
   xmlns:sodipodi="http://sodipodi.sourceforge.net/DTD/sodipodi-0.dtd"
   xmlns="http://www.w3.org/2000/svg"
   xmlns:svg="http://www.w3.org/2000/svg">
  <defs
     id="defs52">
    <rect
       x="488.77505"
       y="209.20857"
       width="606.0321"
       height="198.17784"
       id="rect1125" />
  </defs>
  <sodipodi:namedview
     id="namedview50"
     pagecolor="#ffffff"
     bordercolor="#000000"
     borderopacity="0.25"
     inkscape:showpageshadow="2"
     inkscape:pageopacity="0.0"
     inkscape:pagecheckerboard="0"
     inkscape:deskcolor="#d1d1d1"
     showgrid="false"
     inkscape:zoom="0.44872305"
     inkscape:cx="323.13918"
     inkscape:cy="402.25257"
     inkscape:window-width="1920"
     inkscape:window-height="1008"
     inkscape:window-x="0"
     inkscape:window-y="0"
     inkscape:window-maximized="1"
     inkscape:current-layer="g54" />
  <g
     inkscape:groupmode="layer"
     inkscape:label="Image"
     id="g54">
    <circle
       style="fill:#000080;stroke-width:1.87378"
       id="path605"
       cx="245.78641"
       cy="303.2912"
       r="235.95546" />
    <path
       sodipodi:type="star"
       style="fill:#000080"
       id="path667"
       inkscape:flatsided="true"
       sodipodi:sides="3"
       sodipodi:cx="208.86984"
       sodipodi:cy="424.06833"
       sodipodi:r1="119.06876"
       sodipodi:r2="59.534382"
       sodipodi:arg1="1.5679989"
       sodipodi:arg2="2.6151965"
       inkscape:rounded="0"
       inkscape:randomized="0"
       d="M 209.20293,543.13663 105.58713,364.82264 311.81947,364.24572 Z"
       inkscape:transform-center-x="-0.37441904"
       inkscape:transform-center-y="55.257837"
       transform="matrix(-2.2482446,0,0,1.8653784,714.71506,-335.70346)" />
    <ellipse
       style="fill:#ffffff;stroke-width:2.16355"
       id="path787"
       cx="246.69485"
       cy="299.08636"
       rx="199.52811"
       ry="197.37253" />
    <rect
       style="fill:#000080;stroke-width:1.19257"
       id="rect843"
       width="9.4762459"
       height="147.46979"
       x="-251.79567"
       y="378.65646"
       inkscape:transform-center-x="0.84032968"
       inkscape:transform-center-y="-0.75055022"
       transform="matrix(0.73396407,-0.6791883,0.66721656,0.74486379,0,0)" />
    <rect
       style="fill:#000080;stroke-width:1.19257"
       id="rect843-64"
       width="9.4762459"
       height="147.46979"
       x="607.5639"
       y="-215.67627"
       inkscape:transform-center-x="0.8403457"
       inkscape:transform-center-y="0.75060565"
       transform="matrix(0.73396407,0.6791883,0.66721656,-0.74486379,0,0)" />
    <path
       style="fill:#ffd42a;stroke-width:1.87378"
       d="m 413.49432,279.47919 c 7.39064,-15.72352 7.39064,-15.72352 7.39064,-15.72352 l -9.61439,-7.30892 c 0,0 -24.43157,-10.31767 -29.89561,-8.11496 -5.46406,2.2027 -5.46406,2.2027 -5.46406,2.2027 l -5.70671,-1.41522 -2.16309,-11.18811 -16.24231,-0.42345 -5.42566,2.5432 -10.075,-0.13005 -1.8325,3.46811 -6.36047,-0.44821 -0.31944,-2.76236 -2.88122,-1.07845 -2.24108,-17.80984 -15.7582,-3.62411 -6.35181,-0.67604 -1.25799,-7.46122 7.36589,-5.29317 v 0 l 0.74661,-7.51942 -6.04474,-4.35959 -4.14045,-5.46901 -31.91755,-1.54027 -4.65181,10.4774 -19.88996,1.70373 -3.90765,4.15405 -0.98436,15.83495 -7.73485,0.93481 -0.49526,-3.49534 -18.23331,-0.1634 -4.45245,-4.01911 -5.6349,0.71319 -3.87052,3.13506 -8.73157,-2.06775 -10.05518,-7.96144 -14.13867,-8.98169 -27.30785,-2.5692 -15.56132,0.58566 -6.13636,4.15777 -8.48766,4.56018 -1.50686,4.64685 8.32546,18.75334 -4.02034,10.10964 -19.543273,24.46005 -13.307838,17.12761 -9.839747,12.07339 v 0 l 1.141267,10.56157 4.276394,0.11992 8.142753,6.96583 16.20329,5.17675 21.258204,3.1594 27.60024,0.53385 24.73289,-14.40166 v 0 l 16.21781,1.90901 15.1608,10.40861 3.74353,17.24482 7.09832,4.52687 1.48735,5.99971 8.25879,9.8864 -0.11804,9.4715 -3.52016,0.86359 -9.04213,-4.67191 -8.53634,2.98148 -2.01053,15.02734 -10.35349,12.48878 0.90517,8.66012 15.11631,-1.39258 15.71203,-8.48607 9.22781,-8.12243 9.81868,-10.04016 v 0 l 2.10339,-9.38738 8.43191,-0.54444 7.64953,3.95242 3.83735,7.20179 v 0 l 15.69365,2.72327 10.11075,-4.0936 5.72506,1.18078 5.60226,3.66908 0.0648,2.04535 -4.05106,4.13038 -7.95126,0.39263 -3.41087,3.86538 -12.12129,3.33736 -1.85776,7.04029 11.23932,5.06167 8.62726,0.55799 0.3201,9.02473 0.22822,5.0017 2.86158,5.11388 v 0 l 9.64849,3.12944 6.99967,-5.28214 5.55196,-2.55114 v 0 l 2.00474,-4.52494 12.14063,-2.34515 8.16208,-9.17363 v 0 l 9.06922,-0.4497 7.26851,3.06464 4.66034,-1.86935 -1.05994,-3.55785 4.02401,-5.98038 -9.71716,-2.51922 -6.22117,0.4429 -3.78029,0.87522 -2.45539,3.51435 -11.61938,-1.21853 -3.91761,-6.67764 -11.18226,-3.74933 -3.11977,-5.01523 -4.58684,-4.71545 8.38646,-2.89155 11.9037,-0.38006 9.89026,-4.5288 10.74223,-2.45734 6.79755,-4.20289 17.16361,-0.93322 13.88039,-12.57388 v 0 l 5.7415,-0.67211 0.6286,-7.09156 4.43307,-11.05652 5.85368,-8.39034 8.15628,-1.16531 7.25402,1.23978 5.76956,-8.83034 0.0697,-10.99368 -4.20578,-9.15721 z"
       id="path1015" />
    <text
       xml:space="preserve"
       id="text1123"
       style="font-size:53.3333px;white-space:pre;shape-inside:url(#rect1125);fill:#ffd42a"
       transform="matrix(2.9766861,0,0,3.0834578,-908.42133,-568.86766)"><tspan
         x="488.77539"
         y="257.73563"
         id="tspan428"><tspan
           style="font-weight:600;font-family:'URW Bookman';-inkscape-font-specification:'URW Bookman Semi-Bold';fill:#000080"
           id="tspan424">SLICE</tspan><tspan
           style="font-weight:600;font-family:'URW Bookman';-inkscape-font-specification:'URW Bookman Semi-Bold'"
           id="tspan426">
</tspan></tspan><tspan
         x="488.77539"
         y="327.64893"
         id="tspan432"><tspan
           style="font-weight:600;font-family:'URW Bookman';-inkscape-font-specification:'URW Bookman Semi-Bold'"
           id="tspan430">OF UKRAINE</tspan></tspan></text>
    <text
       xml:space="preserve"
       style="font-size:71.3128px;fill:#ffd42a;stroke-width:1.33711"
       x="500.18268"
       y="622.82745"
       id="text1225"
       transform="scale(1.1039364,0.90584928)"><tspan
         sodipodi:role="line"
         id="tspan1223"
         x="500.18268"
         y="622.82745"
         style="font-style:normal;font-variant:normal;font-weight:normal;font-stretch:normal;font-family:'URW Bookman';-inkscape-font-specification:'URW Bookman';stroke-width:1.33711">FOOD MARKET</tspan></text>
    <rect
       style="fill:#ffd42a;stroke-width:1.87378"
       id="rect1279"
       width="1154.1803"
       height="4.0600348"
       x="552.28528"
       y="483.49646" />
  </g>
</svg>
