<?xml version="1.0" encoding="UTF-8" standalone="no"?>
<!-- Created with Inkscape (http://www.inkscape.org/) -->

<svg
   version="1.1"
   id="svg48"
   width="1706.6667"
   height="746.66669"
   viewBox="0 0 1706.6667 746.66669"
   sodipodi:docname="photo_2025-06-06_16-31-58.jpg"
   inkscape:version="0.0.2 (b0a8486541, 2022-12-01)"
   inkscape:dataloss="true"
   inkscape:export-filename="photo_2025-06-06_16-31-58.svg"
   inkscape:export-xdpi="96"
   inkscape:export-ydpi="96"
   xmlns:inkscape="http://www.inkscape.org/namespaces/inkscape"
   xmlns:sodipodi="http://sodipodi.sourceforge.net/DTD/sodipodi-0.dtd"
   xmlns="http://www.w3.org/2000/svg"
   xmlns:svg="http://www.w3.org/2000/svg">
  <defs
     id="defs52">
    <rect
       x="488.77505"
       y="209.20857"
       width="606.0321"
       height="198.17784"
       id="rect1125" />
  </defs>
  <sodipodi:namedview
     id="namedview50"
     pagecolor="#ffffff"
     bordercolor="#000000"
     borderopacity="0.25"
     inkscape:showpageshadow="2"
     inkscape:pageopacity="0.0"
     inkscape:pagecheckerboard="0"
     inkscape:deskcolor="#d1d1d1"
     showgrid="false"
     inkscape:zoom="0.44872305"
     inkscape:cx="171.59805"
     inkscape:cy="397.79548"
     inkscape:window-width="1920"
     inkscape:window-height="1008"
     inkscape:window-x="0"
     inkscape:window-y="0"
     inkscape:window-maximized="1"
     inkscape:current-layer="g54" />
  <g
     inkscape:groupmode="layer"
     inkscape:label="Image"
     id="g54">
    <circle
       style="fill:#000080"
       id="path605"
       cx="520.59735"
       cy="337.11084"
       r="125.92432" />
    <path
       sodipodi:type="star"
       style="fill:#000080"
       id="path667"
       inkscape:flatsided="true"
       sodipodi:sides="3"
       sodipodi:cx="208.86984"
       sodipodi:cy="424.06833"
       sodipodi:r1="119.06876"
       sodipodi:r2="59.534382"
       sodipodi:arg1="1.5679989"
       sodipodi:arg2="2.6151965"
       inkscape:rounded="0"
       inkscape:randomized="0"
       d="M 209.20293,543.13663 105.58713,364.82264 311.81947,364.24572 Z"
       inkscape:transform-center-x="-0.19981881"
       inkscape:transform-center-y="29.489898"
       transform="matrix(-1.1998395,0,0,0.99551205,770.85441,-3.9067742)" />
    <ellipse
       style="fill:#ffffff;stroke-width:1.15464"
       id="path787"
       cx="521.08215"
       cy="334.86682"
       rx="106.48383"
       ry="105.33344" />
    <rect
       style="fill:#000080;stroke-width:0.636453"
       id="rect843"
       width="5.0572672"
       height="78.701431"
       x="38.784153"
       y="595.25403"
       inkscape:transform-center-x="0.4484806"
       inkscape:transform-center-y="-0.40056083"
       transform="matrix(0.73396407,-0.6791883,0.66721656,0.74486379,0,0)" />
    <rect
       style="fill:#000080;stroke-width:0.636453"
       id="rect843-64"
       width="5.0572672"
       height="78.701431"
       x="731.297"
       y="20.782097"
       inkscape:transform-center-x="0.44847086"
       inkscape:transform-center-y="0.40056954"
       transform="matrix(0.73396407,0.6791883,0.66721656,-0.74486379,0,0)" />
    <path
       style="fill:#ffd42a"
       d="m 610.09942,324.40289 c 3.94422,-8.3913 3.94422,-8.3913 3.94422,-8.3913 l -5.13099,-3.90061 c 0,0 -13.0386,-5.50632 -15.95464,-4.33078 -2.91605,1.17553 -2.91605,1.17553 -2.91605,1.17553 l -3.04555,-0.75527 -1.15439,-5.97085 -8.66817,-0.22599 -2.89556,1.35725 -5.37681,-0.0694 -0.97796,1.85085 -3.39445,-0.2392 -0.17048,-1.47421 -1.53764,-0.57554 -1.19602,-9.50473 -8.40981,-1.93411 -3.38982,-0.36079 -0.67136,-3.98189 3.93101,-2.82485 v 0 l 0.39845,-4.01295 -3.22595,-2.32662 -2.20966,-2.91869 -17.03371,-0.82201 -2.48257,5.59156 -10.61484,0.90924 -2.08543,2.21693 -0.52533,8.45077 -4.12792,0.49889 -0.26431,-1.86539 -9.73072,-0.0872 -2.37618,-2.14491 -3.00723,0.38061 -2.06561,1.67311 -4.65985,-1.10351 -5.36623,-4.24885 -7.5455,-4.79333 -14.57361,-1.37113 -8.30474,0.31256 -3.27484,2.21891 -4.52968,2.43367 -0.80418,2.47992 4.44312,10.00825 -2.14557,5.3953 -10.42982,13.0538 -7.10211,9.14063 -5.25126,6.44331 v 0 l 0.60907,5.63648 2.28222,0.064 4.34561,3.71751 8.64735,2.76272 11.34504,1.68611 14.72965,0.2849 13.19941,-7.68585 v 0 l 8.65509,1.01879 8.09099,5.55485 1.99784,9.20319 3.78822,2.41589 0.79377,3.20192 4.40754,5.27615 -0.063,5.05474 -1.87863,0.46088 -4.82559,-2.4933 -4.55566,1.59115 -1.07298,8.01977 -5.52543,6.66499 0.48307,4.62172 8.06725,-0.74319 8.38517,-4.52883 4.92468,-4.33477 5.24002,-5.35821 v 0 l 1.12253,-5.00984 4.49993,-0.29056 4.08239,2.10932 2.04791,3.84344 v 0 l 8.37536,1.45335 5.39589,-2.18467 3.05534,0.63016 2.9898,1.95811 0.0346,1.09156 -2.16196,2.20429 -4.24342,0.20954 -1.82031,2.06287 -6.46887,1.78108 -0.99144,3.75725 5.99818,2.7013 4.60418,0.29779 0.17083,4.8163 0.1218,2.6693 1.52716,2.72917 v 0 l 5.14919,1.67011 3.73557,-2.81896 2.96296,-1.36149 v 0 l 1.06989,-2.41486 6.47919,-1.25156 4.35593,-4.89577 v 0 l 4.84004,-0.23999 3.87905,1.63553 2.48712,-0.99763 -0.56566,-1.89875 2.14752,-3.1916 -5.18583,-1.34445 -3.32011,0.23637 -2.01746,0.46708 -1.31039,1.87553 -6.20101,-0.6503 -2.09074,-3.56371 -5.96773,-2.00094 -1.66496,-2.67652 -2.44789,-2.51653 4.47567,-1.54316 6.35275,-0.20283 5.27821,-2.41692 5.7329,-1.31143 3.62771,-2.24299 9.15984,-0.49804 7.40767,-6.71041 v 0 l 3.06411,-0.35869 0.33547,-3.78461 2.36583,-5.90063 3.12399,-4.47774 4.35283,-0.6219 3.87131,0.66164 3.07909,-4.71256 0.0372,-5.86709 -2.24454,-4.887 z"
       id="path1015" />
    <text
       xml:space="preserve"
       id="text1123"
       style="font-size:53.3333px;white-space:pre;shape-inside:url(#rect1125);fill:#ffd42a"
       transform="matrix(1.5885929,0,0,1.6455747,-95.378355,-128.34146)"><tspan
         x="488.77539"
         y="257.73563"
         id="tspan1569"><tspan
           style="fill:#000080"
           id="tspan1565">SLICE</tspan><tspan
           style="font-family:'URW Bookman';-inkscape-font-specification:'URW Bookman'"
           id="tspan1567">
</tspan></tspan><tspan
         x="488.77539"
         y="328.02225"
         id="tspan1573"><tspan
           style="font-family:'URW Bookman';-inkscape-font-specification:'URW Bookman'"
           id="tspan1571">OF UKRAINE</tspan></tspan></text>
    <text
       xml:space="preserve"
       style="font-size:38.0581px;fill:#ffd42a;stroke-width:0.713589"
       x="619.69836"
       y="525.85535"
       id="text1225"
       transform="scale(1.1039364,0.90584928)"><tspan
         sodipodi:role="line"
         id="tspan1223"
         x="619.69836"
         y="525.85535"
         style="font-style:normal;font-variant:normal;font-weight:normal;font-stretch:normal;font-family:'URW Bookman';-inkscape-font-specification:'URW Bookman';stroke-width:0.713589">FOOD MARKET</tspan></text>
    <rect
       style="fill:#ffd42a"
       id="rect1279"
       width="615.961"
       height="2.1667526"
       x="684.16913"
       y="433.2825" />
  </g>
</svg>
