<?xml version="1.0" encoding="UTF-8" standalone="no"?>
<!-- Created with Inkscape (http://www.inkscape.org/) -->

<svg
   version="1.1"
   id="svg48"
   width="1706.6667"
   height="746.66669"
   viewBox="0 0 1706.6667 746.66669"
   sodipodi:docname="vartical-logo.svg"
   inkscape:version="0.0.2 (b0a8486541, 2022-12-01)"
   inkscape:dataloss="true"
   inkscape:export-filename="vartical-llogo..svg"
   inkscape:export-xdpi="1"
   inkscape:export-ydpi="1"
   xmlns:inkscape="http://www.inkscape.org/namespaces/inkscape"
   xmlns:sodipodi="http://sodipodi.sourceforge.net/DTD/sodipodi-0.dtd"
   xmlns="http://www.w3.org/2000/svg"
   xmlns:svg="http://www.w3.org/2000/svg">
  <defs
     id="defs52" />
  <sodipodi:namedview
     id="namedview50"
     pagecolor="#ffffff"
     bordercolor="#000000"
     borderopacity="0.25"
     inkscape:showpageshadow="2"
     inkscape:pageopacity="0.0"
     inkscape:pagecheckerboard="0"
     inkscape:deskcolor="#d1d1d1"
     showgrid="false"
     inkscape:zoom="0.44872305"
     inkscape:cx="171.59805"
     inkscape:cy="397.79548"
     inkscape:window-width="1920"
     inkscape:window-height="1008"
     inkscape:window-x="0"
     inkscape:window-y="0"
     inkscape:window-maximized="1"
     inkscape:current-layer="g54" />
  <g
     inkscape:groupmode="layer"
     inkscape:label="Image"
     id="g54">
    <circle
       style="fill:#ffcc00;stroke-width:2.2494"
       id="path605"
       cx="886.87769"
       cy="290.20312"
       r="283.25433" />
    <path
       sodipodi:type="star"
       style="fill:#ffcc00"
       id="path667"
       inkscape:flatsided="true"
       sodipodi:sides="3"
       sodipodi:cx="208.86984"
       sodipodi:cy="424.06833"
       sodipodi:r1="119.06876"
       sodipodi:r2="59.534382"
       sodipodi:arg1="1.5679989"
       sodipodi:arg2="2.6151965"
       inkscape:rounded="0"
       inkscape:randomized="0"
       d="M 209.20293,543.13663 105.58713,364.82264 311.81947,364.24572 Z"
       inkscape:transform-center-x="-0.44952924"
       inkscape:transform-center-y="66.334591"
       transform="matrix(-2.6989208,0,0,2.2393063,1449.8061,-476.88242)" />
    <ellipse
       style="fill:#ffffff;stroke-width:2.59725"
       id="path787"
       cx="887.96802"
       cy="285.15546"
       rx="239.52492"
       ry="236.93719" />
    <rect
       style="fill:#ffcc00;stroke-width:1.43164"
       id="rect843"
       width="11.375824"
       height="177.03113"
       x="187.91795"
       y="802.33563"
       inkscape:transform-center-x="1.0087858"
       inkscape:transform-center-y="-0.90097847"
       transform="matrix(0.73396407,-0.6791883,0.66721656,0.74486379,0,0)" />
    <rect
       style="fill:#ffcc00;stroke-width:1.43164"
       id="rect843-64"
       width="11.375824"
       height="177.03113"
       x="1120.9347"
       y="197.33684"
       inkscape:transform-center-x="1.0088383"
       inkscape:transform-center-y="0.90097875"
       transform="matrix(0.73396407,0.6791883,0.66721656,-0.74486379,0,0)" />
    <path
       style="fill:#000080;stroke-width:2.2494"
       d="m 1088.2035,261.61786 c 8.8722,-18.87539 8.8722,-18.87539 8.8722,-18.87539 l -11.5416,-8.77403 c 0,0 -29.329,-12.38593 -35.8886,-9.74167 -6.5593,2.64423 -6.5593,2.64423 -6.5593,2.64423 l -6.8505,-1.6989 -2.5968,-13.43084 -19.4981,-0.50834 -6.5134,3.053 -12.09446,-0.15612 -2.19997,4.16331 -7.63542,-0.53806 -0.3835,-3.31609 -3.45869,-1.29462 -2.6904,-21.37995 -18.91703,-4.35058 -7.62501,-0.81158 -1.51021,-8.95687 8.84245,-6.35422 v 0 l 0.89629,-9.02673 -7.25653,-5.23351 -4.97034,-6.5653 -38.31572,-1.84903 -5.58426,12.57766 -23.87707,2.04525 -4.69093,4.98676 -1.18172,19.00919 -9.28534,1.12219 -0.59452,-4.196 -21.88829,-0.19616 -5.34498,-4.82475 -6.76448,0.85614 -4.64638,3.76349 -10.48187,-2.48224 -12.0708,-9.55737 -16.97287,-10.78211 -32.7819,-3.08424 -18.6807,0.70309 -7.36643,4.99122 -10.18906,5.4743 -1.80892,5.57833 9.99435,22.51256 -4.82625,12.13621 -23.46085,29.36323 -15.97549,20.56096 -11.81219,14.49359 v 0 l 1.37003,12.6787 5.13364,0.14402 9.77501,8.36216 19.45137,6.21447 25.51955,3.79274 33.1329,0.64085 29.69078,-17.28856 v 0 l 19.46876,2.29168 18.19989,12.49507 4.49394,20.70168 8.52123,5.4343 1.7855,7.2024 9.91432,11.86818 -0.1416,11.37014 -4.22581,1.03671 -10.85472,-5.60842 -10.24749,3.57913 -2.41357,18.03967 -12.42892,14.99224 1.08663,10.39611 18.14648,-1.67173 18.86164,-10.18717 11.07756,-9.75062 11.78694,-12.05278 v 0 l 2.52503,-11.26913 10.12212,-0.65359 9.1829,4.74471 4.60659,8.64543 v 0 l 18.83954,3.26918 12.13756,-4.9142 6.87268,1.41749 6.72529,4.40456 0.0781,2.45535 -4.86304,4.95834 -9.54522,0.47134 -4.09451,4.64022 -14.55116,4.00636 -2.23013,8.45158 13.49234,6.0763 10.35657,0.66984 0.38433,10.83379 0.27396,6.00434 3.43516,6.13899 v 0 l 11.58265,3.75676 8.40265,-6.34098 6.66497,-3.06253 v 0 l 2.4065,-5.432 14.57434,-2.81526 9.79824,-11.01255 v 0 l 10.88717,-0.53984 8.7256,3.67898 5.5944,-2.24408 -1.2723,-4.27104 4.8306,-7.1792 -11.6649,-3.0242 -7.4683,0.53168 -4.53797,1.05065 -2.94768,4.21882 -13.94858,-1.46278 -4.70288,-8.01622 -13.42385,-4.50092 -3.74519,-6.02056 -5.50619,-5.66069 10.06747,-3.47119 14.28997,-0.45623 11.87282,-5.43663 12.89558,-2.94993 8.1601,-5.04539 20.6041,-1.1203 16.663,-15.09439 v 0 l 6.8923,-0.80685 0.7546,-8.51311 5.3218,-13.27288 7.027,-10.07224 9.7914,-1.39891 8.7081,1.4883 6.9261,-10.60043 0.083,-13.19745 -5.0487,-10.99283 z"
       id="path1015" />
  </g>
</svg>
